{"title":"D-Tox 2002 (I See You) DVDRip Xvid BigPerm LKRG","uid":7122688,"size":857294748,"categoryP":"video","categoryS":"movies","magnet":"?xt=urn:btih:2d731777627f81d52c9a0a409716e7bbaa50923e&amp;dn=D-Tox+2002+%28I+See+You%29+DVDRip+Xvid+BigPerm+LKRG&amp;tr=udp%3A%2F%2Ftracker.openbittorrent.com%3A80&amp;tr=udp%3A%2F%2Fopen.demonii.com%3A1337&amp;tr=udp%3A%2F%2Ftracker.coppersurfer.tk%3A6969&amp;tr=udp%3A%2F%2Fexodus.desync.com%3A6969","seeders":2,"leechers":0,"uploader":".BONE.","files":2,"time":1332374640,"description":"PLOT\n\nStallone plays a cop who comes undone after witnessing a brutal scene on the job. He checks into a rehab clinic that specializes\nin treating law enforcement officials...\n\n\nEncoded By .......: BigPerm\nRuntime ..........: 1h 35mn\nFile Size ........: 818 MB\nResolution .......: 704 x 396 &lt;a href=&quot;\nhttp://www.imdb.com/title/tt0160184/&quot; rel=&quot;nofollow&quot; target=&quot;_NEW&quot;&gt;\nhttp://www.imdb.com/title/tt0160184/&lt;/a&gt;\nGenre ............: Crime | Horror | Mystery\nLanguage .........: English\nSubtitles ........: None\nVideo\nID : 0\nFormat : MPEG-4 Visual\nFormat profile : Advanced Simple@L5\nFormat settings, BVOP : Yes\nFormat settings, QPel : No\nFormat settings, GMC : No warppoints\nFormat settings, Matrix : Default (H.263)\nCodec ID : XVID\nCodec ID/Hint : XviD\nDuration : 1h 35mn\nBit rate : 740 Kbps\nWidth : 704 pixels\nHeight : 396 pixels\nDisplay aspect ratio : 16:9\nFrame rate : 29.970 fps\nColor space : YUV\nChroma subsampling : 4:2:0\nBit depth : 8 bits\nScan type : Progressive\nCompression mode : Lossy\nBits/(Pixel*Frame) : 0.089\nStream size : 507 MiB (62%)\nWriting library : XviD 1.2.1 (UTC 2008-12-04)\n\nAudio\nID : 1\nFormat : AC-3\nFormat/Info : Audio Coding 3\nMode extension : CM (complete main)\nCodec ID : 2000\nDuration : 1h 35mn\nBit rate mode : Constant\nBit rate : 448 Kbps\nChannel(s) : 6 channels\nChannel positions : Front: L C R, Side: L R, LFE\nSampling rate : 48.0 KHz\nBit depth : 16 bits\nCompression mode : Lossy\nVideo delay : 33ms\nStream size : 307 MiB (38%)\nAlignment : Split accross interleaves\nInterleave, duration : 500 ms (14.98 video frames)\nInterleave, preload duration : 500 ms","torrent":{"xt":"urn:btih:2d731777627f81d52c9a0a409716e7bbaa50923e","amp;dn":"D-Tox+2002+%28I+See+You%29+DVDRip+Xvid+BigPerm+LKRG","amp;tr":["udp%3A%2F%2Ftracker.openbittorrent.com%3A80","udp%3A%2F%2Fopen.demonii.com%3A1337","udp%3A%2F%2Ftracker.coppersurfer.tk%3A6969","udp%3A%2F%2Fexodus.desync.com%3A6969"],"infoHash":"2d731777627f81d52c9a0a409716e7bbaa50923e","infoHashBuffer":{"type":"Buffer","data":[45,115,23,119,98,127,129,213,44,154,10,64,151,22,231,187,170,80,146,62]},"announce":[],"urlList":[]}}